<?xml version="1.0" encoding="UTF-8" standalone="no"?>
<svg xmlns:dc="http://purl.org/dc/elements/1.1/" xmlns:cc="http://creativecommons.org/ns#" xmlns:rdf="http://www.w3.org/1999/02/22-rdf-syntax-ns#" xmlns:svg="http://www.w3.org/2000/svg" xmlns="http://www.w3.org/2000/svg" id="svg8" version="1.1"
	width="11cm"
	height="11cm"
	viewBox="0 0 110 110">
    <title>Biblewiki</title>
    <defs>
        <style type="text/css">

            .letter_group path {                
                fill: white;
                stroke-width:2px;
                stroke-dasharray: 100;                 
            }
            
            .letter_group .logo, .letter_group .letter_g {
                stroke: #000;
                animation: dashdraw 5s linear forwards, fill 1.2s 1.2s forwards;
            }
                        
            .letter_group .logo {
                stroke-dasharray: 9000;
                stroke-dashoffset: 9000;            
            }
            
            @keyframes dashdraw {
                to {stroke-dashoffset: 0}
            }
            
            @keyframes fill {
                to {
                    fill: #000;
                }
            }
        </style>
    </defs>
    <g class="letter_group" transform="matrix(0.265,0,0,0.265,0,0)" id="layer1">
        <path class="logo" d="m 18.898438 18.898438 L 18.898438 207.87305 A 188.97636 188.97636 0 0 0 82.503906 348.96289 L 82.503906 114.67188 L 191.74414 114.67188 C 230.92948 114.67188 259.27926 120.59346 276.79297 132.4375 C 294.43267 144.28154 303.25195 163.24604 303.25195 189.32812 C 303.25195 203.06217 300.03917 214.78039 293.61328 224.48242 C 287.18739 234.05845 277.86437 241.17588 265.64258 245.83789 C 281.26631 250.37391 293.36183 258.75452 301.92969 270.97656 C 310.49754 283.1986 314.78125 298.19293 314.78125 315.95898 C 314.78125 343.17507 305.58319 363.46036 287.1875 376.81641 C 269.37073 389.75213 242.54372 396.40346 206.76172 396.81055 A 188.97636 188.97636 0 0 0 207.87305 396.84961 L 396.84961 396.84961 L 396.84961 207.87305 A 188.97636 188.97636 0 0 0 207.87305 18.898438 L 18.898438 18.898438 z M 155.26758 164.19141 L 155.26758 223.91406 L 195.52344 223.91406 C 206.98924 223.91406 215.68357 221.39549 221.60547 216.35547 C 227.52737 211.31545 230.48828 203.88077 230.48828 194.05273 C 230.48828 184.3507 227.52737 176.97947 221.60547 171.93945 C 215.68357 166.77344 206.98924 164.19141 195.52344 164.19141 L 155.26758 164.19141 z M 155.26758 273.43359 L 155.26758 347.33203 L 197.98047 347.33203 C 212.59622 347.33203 223.55931 344.24433 230.86719 338.07031 C 238.30106 331.89629 242.01758 322.57365 242.01758 310.09961 C 242.01758 297.87757 238.36256 288.74138 231.05469 282.69336 C 223.74681 276.51934 212.72222 273.43359 197.98047 273.43359 L 155.26758 273.43359 z" />
       
    </g>
	
</svg>